<svg width="512" height="512" version="1.1" xmlns="http://www.w3.org/2000/svg" xmlns:xlink="http://www.w3.org/1999/xlink">
<circle cx="256" cy="256" r="250.88" fill="white" stroke="black" stroke-width="3"></circle>
 <line x1="256.0" x2="256.0" y1="10.240000000000009" y2="40.96000000000001" stroke="black" stroke-width="8">
</line>
 <text font-size="51.2" y="88.85894943050693" x="232.50065810112835">
 12</text>
 <line x1="400.45410360339815" x2="391.42572212818584" y1="57.175983462412916" y2="69.60248449601212" stroke="black" stroke-width="1">
</line>
 <line x1="489.7316494446969" x2="475.1234213544034" y1="180.05598346241294" y2="184.80248449601214" stroke="black" stroke-width="1">
</line>
 <line x1="489.7316494446969" x2="475.1234213544034" y1="331.94401653758706" y2="327.19751550398786" stroke="black" stroke-width="1">
</line>
 <line x1="400.45410360339815" x2="391.42572212818584" y1="454.8240165375871" y2="442.39751550398785" stroke="black" stroke-width="1">
</line>
 <line x1="378.88" x2="368.64" y1="43.16559676593636" y2="60.90179703544166" stroke="black" stroke-width="8">
</line>
 <text font-size="51.2" y="110.32176635090926" x="325.4663317860287">
 1</text>
 <line x1="480.5129316702456" x2="466.48087344085525" y1="156.0404025976913" y2="162.28787743533562" stroke="black" stroke-width="1">
</line>
 <line x1="496.3895543563401" x2="481.3652072090688" y1="307.0963771353725" y2="303.9028535644117" stroke="black" stroke-width="1">
</line>
 <line x1="420.445537818753" x2="410.167691705081" y1="438.63527230932436" y2="427.2205677899916" stroke="black" stroke-width="1">
</line>
 <line x1="281.68891513265856" x2="280.0833579368674" y1="500.4137010057068" y2="485.13784469285014" stroke="black" stroke-width="1">
</line>
 <line x1="468.83440323406364" x2="451.09820296455837" y1="133.12" y2="143.36" stroke="black" stroke-width="8">
</line>
 <text font-size="51.2" y="175.3919478832023" x="395.2455584168858">
 2</text>
 <line x1="500.4137010057068" x2="485.13784469285014" y1="281.6889151326585" y2="280.08335793686734" stroke="black" stroke-width="1">
</line>
 <line x1="438.6352723093245" x2="427.22056778999166" y1="420.44553781875294" y2="410.16769170508087" stroke="black" stroke-width="1">
</line>
 <line x1="307.0963771353726" x2="303.9028535644118" y1="496.38955435634006" y2="481.3652072090688" stroke="black" stroke-width="1">
</line>
 <line x1="156.0404025976914" x2="162.2878774353357" y1="480.5129316702456" y2="466.48087344085525" stroke="black" stroke-width="1">
</line>
 <line x1="501.76" x2="471.03999999999996" y1="256.0" y2="256.0" stroke="black" stroke-width="8">
</line>
 <text font-size="51.2" y="266.6339914344617" x="423.1410505694931">
 3</text>
 <line x1="454.8240165375871" x2="442.39751550398785" y1="400.45410360339815" y2="391.42572212818584" stroke="black" stroke-width="1">
</line>
 <line x1="331.9440165375871" x2="327.1975155039879" y1="489.7316494446969" y2="475.1234213544034" stroke="black" stroke-width="1">
</line>
 <line x1="180.05598346241294" x2="184.80248449601214" y1="489.7316494446969" y2="475.1234213544034" stroke="black" stroke-width="1">
</line>
 <line x1="57.175983462412944" x2="69.60248449601215" y1="400.4541036033982" y2="391.42572212818584" stroke="black" stroke-width="1">
</line>
 <line x1="468.83440323406364" x2="451.09820296455837" y1="378.87999999999994" y2="368.64" stroke="black" stroke-width="8">
</line>
 <text font-size="51.2" y="359.599665119362" x="401.6782336490907">
 4</text>
 <line x1="355.9595974023087" x2="349.7121225646644" y1="480.5129316702456" y2="466.48087344085525" stroke="black" stroke-width="1">
</line>
 <line x1="204.90362286462752" x2="208.0971464355883" y1="496.3895543563401" y2="481.3652072090688" stroke="black" stroke-width="1">
</line>
 <line x1="73.36472769067566" x2="84.77943221000842" y1="420.445537818753" y2="410.167691705081" stroke="black" stroke-width="1">
</line>
 <line x1="11.586298994293173" x2="26.862155307149862" y1="281.6889151326587" y2="280.0833579368675" stroke="black" stroke-width="1">
</line>
 <line x1="378.88" x2="368.64" y1="468.83440323406364" y2="451.09820296455837" stroke="black" stroke-width="8">
</line>
 <text font-size="51.2" y="429.3788917502191" x="336.60805211679764">
 5</text>
 <line x1="230.31108486734146" x2="231.91664206313263" y1="500.4137010057068" y2="485.13784469285014" stroke="black" stroke-width="1">
</line>
 <line x1="91.554462181247" x2="101.83230829491907" y1="438.63527230932436" y2="427.2205677899916" stroke="black" stroke-width="1">
</line>
 <line x1="15.610445643659915" x2="30.634792790931186" y1="307.09637713537245" y2="303.90285356441166" stroke="black" stroke-width="1">
</line>
 <line x1="31.487068329754436" x2="45.51912655914481" y1="156.04040259769124" y2="162.28787743533553" stroke="black" stroke-width="1">
</line>
 <line x1="256.0" x2="256.0" y1="501.76" y2="471.03999999999996" stroke="black" stroke-width="8">
</line>
 <text font-size="51.2" y="457.2743839028264" x="245.36600856553832">
 6</text>
 <line x1="111.54589639660185" x2="120.57427787181422" y1="454.8240165375871" y2="442.39751550398785" stroke="black" stroke-width="1">
</line>
 <line x1="22.268350555303073" x2="36.87657864559665" y1="331.9440165375871" y2="327.1975155039879" stroke="black" stroke-width="1">
</line>
 <line x1="22.268350555303044" x2="36.876578645596624" y1="180.05598346241294" y2="184.80248449601214" stroke="black" stroke-width="1">
</line>
 <line x1="111.54589639660179" x2="120.57427787181419" y1="57.175983462412944" y2="69.60248449601215" stroke="black" stroke-width="1">
</line>
 <line x1="133.12000000000006" x2="143.36000000000007" y1="468.83440323406364" y2="451.09820296455837" stroke="black" stroke-width="8">
</line>
 <text font-size="51.2" y="435.8115669824241" x="152.400334880638">
 7</text>
 <line x1="31.487068329754464" x2="45.51912655914484" y1="355.9595974023088" y2="349.71212256466447" stroke="black" stroke-width="1">
</line>
 <line x1="15.610445643659887" x2="30.634792790931158" y1="204.90362286462764" y2="208.09714643558843" stroke="black" stroke-width="1">
</line>
 <line x1="91.55446218124686" x2="101.83230829491896" y1="73.36472769067572" y2="84.77943221000851" stroke="black" stroke-width="1">
</line>
 <line x1="230.3110848673413" x2="231.91664206313246" y1="11.586298994293173" y2="26.862155307149862" stroke="black" stroke-width="1">
</line>
 <line x1="43.165596765936414" x2="60.90179703544169" y1="378.8800000000001" y2="368.6400000000001" stroke="black" stroke-width="8">
</line>
 <text font-size="51.2" y="370.74138545013096" x="82.62110824978092">
 8</text>
 <line x1="11.586298994293145" x2="26.862155307149834" y1="230.31108486734158" y2="231.91664206313274" stroke="black" stroke-width="1">
</line>
 <line x1="73.36472769067552" x2="84.77943221000831" y1="91.55446218124709" y2="101.83230829491916" stroke="black" stroke-width="1">
</line>
 <line x1="204.90362286462735" x2="208.09714643558814" y1="15.610445643659943" y2="30.634792790931215" stroke="black" stroke-width="1">
</line>
 <line x1="355.95959740230853" x2="349.71212256466424" y1="31.48706832975435" y2="45.51912655914472" stroke="black" stroke-width="1">
</line>
 <line x1="10.240000000000009" x2="40.96000000000001" y1="256.00000000000006" y2="256.0" stroke="black" stroke-width="8">
</line>
 <text font-size="51.2" y="279.4993418988716" x="54.7256160971736">
 9</text>
 <line x1="57.17598346241289" x2="69.6024844960121" y1="111.54589639660185" y2="120.57427787181422" stroke="black" stroke-width="1">
</line>
 <line x1="180.05598346241288" x2="184.80248449601208" y1="22.268350555303073" y2="36.87657864559665" stroke="black" stroke-width="1">
</line>
 <line x1="331.944016537587" x2="327.1975155039878" y1="22.268350555303044" y2="36.876578645596624" stroke="black" stroke-width="1">
</line>
 <line x1="454.82401653758706" x2="442.39751550398785" y1="111.54589639660176" y2="120.57427787181416" stroke="black" stroke-width="1">
</line>
 <line x1="43.165596765936385" x2="60.90179703544166" y1="133.11999999999998" y2="143.35999999999996" stroke="black" stroke-width="8">
</line>
 <text font-size="51.2" y="186.5336682139712" x="76.18843301757599">
 10</text>
 <line x1="156.04040259769135" x2="162.28787743533567" y1="31.48706832975438" y2="45.51912655914475" stroke="black" stroke-width="1">
</line>
 <line x1="307.09637713537256" x2="303.90285356441177" y1="15.610445643659943" y2="30.634792790931215" stroke="black" stroke-width="1">
</line>
 <line x1="438.63527230932436" x2="427.2205677899916" y1="91.55446218124703" y2="101.8323082949191" stroke="black" stroke-width="1">
</line>
 <line x1="500.4137010057068" x2="485.13784469285014" y1="230.3110848673415" y2="231.91664206313266" stroke="black" stroke-width="1">
</line>
 <line x1="133.1199999999999" x2="143.3599999999999" y1="43.16559676593644" y2="60.90179703544172" stroke="black" stroke-width="8">
</line>
 <text font-size="51.2" y="116.75444158311424" x="141.25861454986898">
 11</text>
 <line x1="281.6889151326584" x2="280.08335793686723" y1="11.586298994293145" y2="26.862155307149834" stroke="black" stroke-width="1">
</line>
 <line x1="420.4455378187529" x2="410.1676917050808" y1="73.36472769067552" y2="84.77943221000831" stroke="black" stroke-width="1">
</line>
 <line x1="496.38955435634006" x2="481.3652072090688" y1="204.90362286462732" y2="208.09714643558812" stroke="black" stroke-width="1">
</line>
 <line x1="480.51293167024556" x2="466.4808734408552" y1="355.9595974023087" y2="349.7121225646644" stroke="black" stroke-width="1">
</line>
 <polyline points="390.24634746251536 298.456544760185, 381.1298827666638 284.83348814834886, 241.1048816156543 235.17944649351688, 231.8416354861594 264.4695586671566, 374.95438534700054 304.360229597442, 390.24634746251536 298.456544760185" line-width="0.5" fill="black" stroke="white">
</polyline>
 <polyline points="138.71685781111455 454.31496302170865, 150.94273313530044 443.70025753557, 278.2482510592417 233.46744300340168, 265.0272535244611 225.648566857476, 142.12873477878006 438.48767343828615, 138.71685781111455 454.31496302170865" line-width="0.5" fill="black" stroke="white">
</polyline>
 <line x1="256" x2="400.45410360339815" y1="256" y2="57.175983462412916" stroke="red" stroke-width="3">
</line>
 <line x1="256" x2="233.42904631196905" y1="256" y2="287.066252583998" stroke="red" stroke-width="10">
</line>
 <circle cx="256" cy="256" r="10.24" fill="red" stroke="red" stroke-width="0">
</circle>
</svg>
